<svg id="Capa_1" data-name="Capa 1" xmlns="http://www.w3.org/2000/svg" viewBox="0 0 800 223.62"><defs><style>.cls-1{fill:#5d6166;}.cls-2{fill:#2c2d2c;}</style></defs><title>Mesa de trabajo 1 copia</title><rect class="cls-1" x="-19.22" y="69.72" width="174.54" height="19.08" transform="translate(-35.89 89.71) rotate(-55.09)"/><rect class="cls-1" x="23.49" y="163.66" width="80.52" height="19.08" transform="translate(-114.82 126.55) rotate(-55.15)"/><rect class="cls-1" x="-4.57" y="38.05" width="68.85" height="19.08" transform="translate(-26.25 44.66) rotate(-54.91)"/><path class="cls-2" d="M232.51,158.86c0-18.61,14.93-24.79,34.14-24.79H289c0-10.89-5.83-18.1-16.9-18.1-9.87,0-16.47,5.83-20.16,12.09l-16-11.58c8.23-11.24,19.13-18.79,36-18.79,23.33,0,37.06,14.59,37.06,35.52v52H291.7l-1.37-12.27c-7.38,10.73-16.47,14-26.68,14-17.59,0-31.14-10.13-31.14-28.06M289,149.17h-21.1c-9.53,0-13.9,5-13.9,10.38,0,5.66,4.54,9.69,12.69,9.69,11.93,0,22-9.35,22.31-20.07"/><path class="cls-2" d="M327.74,101.21h20.42v14.42a24.4,24.4,0,0,1,23-16.22,22.06,22.06,0,0,1,15.7,6.18l-9.52,17.16a16.72,16.72,0,0,0-9.35-2.92c-9.78,0-20,9.09-20,30.88v36.21H327.74Z"/><path class="cls-2" d="M416.45,176.62v8.58H394.83V64h21.62v44.1c6-7.38,14.93-10.38,24.11-10.38,24.11,0,37.06,20.76,37.06,44.61s-12.95,44.61-36.72,44.61c-8.92,0-18.44-2.92-24.45-10.3m40.07-34.31c0-14.24-6.44-25.65-20.85-25.65s-21.1,11.23-21.1,25.65,6.69,25.3,21.1,25.3,20.85-11.06,20.85-25.3"/><path class="cls-2" d="M484,142.13c0-24.19,17.41-44.44,43.92-44.44s43.93,20.25,43.93,44.44-17.42,44.79-43.93,44.79S484,166.41,484,142.13m66.06,0c0-14.07-6.27-26.33-22.14-26.33s-22.13,12.26-22.13,26.33,6.35,26.77,22.13,26.77S550,156.2,550,142.13"/><path class="cls-2" d="M585.3,101.21h20.76v10a32.85,32.85,0,0,1,25.31-11.75c22.48,0,31.06,18.1,31.06,36v51.48H641.75V138.1c0-11.24-5.66-19.39-16.39-19.39-11.75,0-19.3,6.35-19.3,21.28v46.93H585.3Z"/><path class="cls-2" d="M673.33,142.13c0-24.19,17.41-44.44,43.92-44.44s43.93,20.25,43.93,44.44-17.42,44.79-43.93,44.79-43.92-20.51-43.92-44.79m66.06,0c0-14.07-6.27-26.33-22.14-26.33s-22.13,12.26-22.13,26.33,6.35,26.77,22.13,26.77,22.14-12.7,22.14-26.77"/><rect class="cls-2" x="776.28" y="164.27" width="21.02" height="22.65"/><path class="cls-2" d="M218.12,181.8c-4.94,2.47-16,5.12-30.5,5.12-41.07,0-62.22-25.56-62.22-59.41,0-40.54,28.91-63.11,64.87-63.11,13.92,0,24.5,2.82,29.26,5.29L214.07,91a58.1,58.1,0,0,0-22.57-4.41c-21.33,0-37.9,12.87-37.9,39.31,0,23.8,14.1,38.79,38.08,38.79,8.11,0,17.1-1.77,22.39-3.88Z"/></svg>